<mxfile host="app.diagrams.net" modified="2024-07-05T07:49:14.291Z" agent="Mozilla/5.0 (Macintosh; Intel Mac OS X 10_15_7) AppleWebKit/537.36 (KHTML, like Gecko) Chrome/123.0.0.0 Safari/537.36" version="24.5.2" etag="dAqlEcSqNK9qwp4oW44x" type="github">
  <diagram name="第 1 页" id="ucKVHH-nMQ7TzDf6Qk2u">
    <mxGraphModel>
      <root>
        <mxCell id="0" />
        <mxCell id="1" parent="0" />
      </root>
    </mxGraphModel>
  </diagram>
</mxfile>
